<?xml version="1.0" encoding="utf-8"?>
<!-- Generator: Adobe Illustrator 26.5.0, SVG Export Plug-In . SVG Version: 6.00 Build 0)  -->
<svg version="1.1" id="Camada_1" xmlns="http://www.w3.org/2000/svg" xmlns:xlink="http://www.w3.org/1999/xlink" x="0px" y="0px"
	 viewBox="0 0 1500 1500" style="enable-background:new 0 0 1500 1500;" xml:space="preserve">
<style type="text/css">
	.st0{fill:#FFBC00;}
</style>
<g>
	<path class="st0" d="M1474.76,712.23l-316.79-131.22l131.22-316.79c13.94-33.65-19.76-67.35-53.41-53.41L918.99,342.03
		L787.77,25.24c-13.94-33.65-61.6-33.65-75.54,0L581.01,342.03L264.22,210.81c-33.65-13.94-67.35,19.76-53.41,53.41l131.22,316.79
		L25.24,712.23c-33.65,13.94-33.65,61.6,0,75.54l316.79,131.22l-131.22,316.79c-13.94,33.65,19.76,67.35,53.41,53.41l316.79-131.22
		l131.22,316.79c13.94,33.65,61.6,33.65,75.54,0l131.22-316.79l316.79,131.22c33.65,13.94,67.35-19.76,53.41-53.41l-131.22-316.79
		l316.79-131.22C1508.41,773.83,1508.41,726.17,1474.76,712.23z M750,1127.86c-197.6,0-357.79-160.19-357.79-357.79
		S552.4,412.28,750,412.28s357.79,160.19,357.79,357.79S947.6,1127.86,750,1127.86z"/>
	<circle class="st0" cx="750" cy="770.07" r="261.42"/>
</g>
</svg>
